<svg width="169" height="192" viewBox="0 0 169 192" fill="none" xmlns="http://www.w3.org/2000/svg">
<path d="M84.3625 191.977C81.9771 191.977 79.394 190.585 76.6113 187.803C73.8295 184.624 72.4382 181.444 72.4382 178.264C72.4382 177.867 72.4382 177.071 72.4382 175.879C72.8355 174.289 73.4322 170.911 74.2268 165.744C77.4067 145.473 79.5926 130.369 80.7853 120.433C82.3752 110.098 83.1698 102.745 83.1698 98.3728C78.0026 101.155 70.6497 106.323 61.1104 113.874C51.5713 121.426 38.8523 131.562 22.9537 144.28C21.3638 145.87 20.1714 146.864 19.3765 147.262C18.979 147.659 18.7803 147.858 18.7803 147.858C16.3955 149.448 13.017 149.845 8.64489 149.05C4.67024 147.858 2.08666 146.069 0.894321 143.685C-0.298107 141.299 -0.298107 138.319 0.894321 134.742C2.48411 130.766 4.67024 128.183 7.45246 126.99C7.84991 126.593 9.04233 125.997 11.0297 125.202C13.017 124.407 17.7866 122.619 25.3384 119.836C43.2244 113.079 56.1422 107.913 64.0915 104.335C72.4382 100.758 78.2013 97.9755 81.3812 95.9883C76.6113 93.2056 69.0598 89.6284 58.7257 85.2567C48.3915 80.8841 33.884 75.121 15.2031 67.9666C11.6259 66.7748 9.24106 65.9794 8.04872 65.5821C7.25374 65.1848 6.85629 64.9862 6.85629 64.9862C4.47152 63.3962 2.68292 60.8122 1.49049 57.235C0.298064 53.2605 0.298064 50.0806 1.49049 47.6961C2.68292 45.7088 5.26641 44.3175 9.24106 43.523C13.2157 42.7276 16.3955 43.1248 18.7803 44.7148C19.1778 44.7148 20.3701 45.5102 22.3575 47.1002C24.3448 48.6893 28.9156 52.2665 36.07 57.8318C50.7764 69.7552 61.508 78.3009 68.2648 83.4681C75.0222 88.238 79.9899 91.6157 83.1698 93.6038C83.1698 88.0385 82.3752 80.0895 80.7853 69.7552C79.5926 59.0236 77.4067 44.1189 74.2268 25.0402C73.4322 20.2712 72.8355 17.2899 72.4382 16.0972C72.4382 14.9054 72.4382 14.1101 72.4382 13.7126C72.4382 10.5329 73.8295 7.55193 76.6113 4.76963C79.394 1.58987 81.9771 0 84.3625 0C86.747 0 89.331 1.58987 92.1128 4.76963C94.8954 7.55193 96.2859 10.5329 96.2859 13.7126C96.2859 14.1101 96.0873 15.104 95.69 16.694C95.69 18.2831 95.0941 22.0598 93.9014 28.0215C90.7215 47.8947 88.5356 62.7994 87.3429 72.7365C86.1511 82.2754 85.5543 89.2311 85.5543 93.6038C89.9269 90.8211 96.0872 86.4493 104.037 80.4868C112.383 74.1278 124.308 64.7867 139.809 52.466C143.784 48.8888 146.367 46.702 147.559 45.9075C148.752 44.7148 149.547 44.1189 149.944 44.1189C152.727 42.5289 156.105 42.3303 160.08 43.523C164.054 44.7148 166.439 46.3048 167.234 48.292C168.427 50.6774 168.427 53.6578 167.234 57.235C166.041 60.8122 164.054 63.3962 161.272 64.9862C161.272 64.9862 160.477 65.3834 158.887 66.178C157.298 66.5753 153.919 67.7679 148.752 69.7552C129.673 77.3069 115.563 83.0708 106.422 87.0453C97.2799 91.0197 90.9201 94.001 87.3429 95.9883C91.7155 98.3728 98.4726 101.553 107.614 105.527C116.756 109.502 130.071 114.867 147.559 121.625C153.521 123.612 157.298 125.003 158.887 125.799C160.477 126.593 161.471 126.99 161.868 126.99C164.253 128.58 166.041 131.363 167.234 135.337C168.427 138.915 168.427 141.696 167.234 143.685C166.041 146.069 163.458 147.659 159.484 148.454C155.509 149.249 152.329 148.851 149.944 147.262C149.547 147.262 148.553 146.665 146.963 145.473C145.771 144.28 142.392 141.498 136.828 137.126C121.326 124.804 109.8 115.861 102.248 110.297C94.6968 104.335 89.1315 100.36 85.5543 98.3728C85.5543 103.937 86.1511 111.688 87.3429 121.625C88.9329 131.562 91.3182 146.069 94.4973 165.148C95.2927 170.314 95.69 173.693 95.69 175.283C96.0873 176.872 96.2859 177.867 96.2859 178.264C96.2859 181.444 94.8954 184.624 92.1128 187.803C89.331 190.585 86.747 191.977 84.3625 191.977Z" fill="black"/>
</svg>
