<svg width="181" height="206" viewBox="0 0 181 206" fill="none" xmlns="http://www.w3.org/2000/svg">
<path d="M68.3585 172.898C68.3585 165.744 89.8215 119.24 89.8215 103.739C75.5129 112.682 45.7029 153.223 40.3371 156.801C23.0473 166.936 5.1613 160.378 1.5841 154.416C-2.58929 146.665 0.987931 128.779 18.2777 118.644C24.2397 115.067 75.5129 109.701 88.0329 101.95C72.5319 94.1997 24.2397 89.4298 18.2777 85.8526C0.987931 76.3137 -1.9931 57.8318 1.5841 51.2733C5.75747 44.1189 23.0473 38.1572 40.3371 48.292C46.2991 51.8692 76.7053 93.007 89.8215 100.758C88.0329 81.6795 68.3585 38.7531 68.3585 32.1946C68.3585 11.924 82.6671 0 90.4174 0C98.7645 0 112.477 11.924 112.477 32.1946C112.477 38.7531 93.3987 81.6795 91.6101 100.161C106.515 89.4298 134.537 51.8692 140.499 48.292C157.788 38.1572 175.078 44.1189 179.251 51.2733C183.425 57.8318 179.848 76.3137 162.558 85.8526C156 89.4298 105.323 94.7956 92.2061 101.95C108.303 110.297 156.596 115.067 162.558 118.644C179.848 128.779 183.425 146.665 179.251 153.819C175.674 160.974 158.385 166.936 141.095 156.801C134.537 153.223 104.13 111.49 91.6101 104.335C93.3987 122.817 112.477 166.34 112.477 172.898C112.477 193.169 98.7645 205.093 90.4174 205.093C82.6671 205.093 68.3585 193.169 68.3585 172.898Z" fill="black"/>
</svg>
