<svg width="169" height="192" viewBox="0 0 169 192" fill="none" xmlns="http://www.w3.org/2000/svg">
<path d="M67.5089 165.148C67.5089 163.359 83.0101 116.259 83.0101 98.3728C65.1242 109.104 34.1217 143.685 32.3331 144.876C18.0243 153.223 4.3118 149.05 0.734607 144.28C-1.65025 138.915 1.33078 124.606 16.2357 116.259C18.6206 115.067 66.3165 105.527 81.8174 95.9883C62.7393 85.8526 18.6206 76.9096 16.2357 75.7178C1.33078 67.3707 -1.65025 53.0619 0.734607 48.292C4.3118 42.9262 18.0243 38.7531 32.3331 47.1002C34.718 48.292 67.5089 85.2567 83.0101 93.6038C81.8174 72.1406 67.5089 29.2142 67.5089 26.8288C67.5089 10.1354 78.2402 0 84.2028 0C90.1645 0 100.896 10.1354 100.896 26.8288C100.896 29.8101 85.3946 75.7178 85.3946 93.6038C103.281 82.8722 134.284 48.292 136.072 47.1002C150.381 38.7531 164.093 42.9262 167.67 48.292C170.056 53.0619 167.074 67.3707 152.17 75.7178C150.381 76.9096 102.089 86.4494 87.1832 95.9883C105.666 106.124 150.381 115.067 152.17 116.259C167.074 124.606 170.056 138.915 167.67 144.28C164.093 149.05 150.381 153.223 136.072 144.876C134.284 144.28 100.896 106.72 85.3946 98.3728C86.5873 119.836 100.896 163.359 100.896 165.148C100.896 181.841 90.1645 191.977 84.2028 191.977C78.2402 191.977 67.5089 181.841 67.5089 165.148Z" fill="#141414"/>
</svg>
