<svg preserveAspectRatio="none" width="100%" height="100%" overflow="visible" style="display: block;" viewBox="0 0 633.318 333" fill="none" xmlns="http://www.w3.org/2000/svg">
<g id="a">
<path id="Vector" d="M94.1747 205.966C89.3861 215.719 81.8839 224.782 71.6949 233.206C61.5058 241.631 51.6094 245.83 42.0322 245.83C32.455 245.83 24.208 242.986 17.8232 237.326C11.4384 231.665 8.24599 224.569 8.24599 216.065C8.24599 206.152 13.5666 196.93 24.208 188.425C34.8493 179.921 51.8754 171.151 75.2863 162.115L96.0369 154.142C95.691 137.851 93.5628 126.317 89.6521 119.593C85.7414 112.869 79.2768 109.494 70.2317 109.494C66.6934 109.494 63.501 110.105 60.6545 111.354C57.8079 112.603 55.3338 114.357 53.2056 116.67C51.4231 118.45 49.8003 120.576 48.284 123.048C46.7676 125.519 44.8787 129.426 42.5642 134.741C41.6863 137.053 40.9681 138.675 40.436 139.658C39.9039 140.641 39.4517 141.465 39.1058 142.183C37.8555 144.654 36.0996 146.435 33.7852 147.498C31.4707 148.561 28.2783 149.092 24.208 149.092C20.1377 149.092 16.9453 148.348 14.6308 146.834C12.3163 145.319 11.1723 143.325 11.1723 140.854C11.1723 138.382 12.1035 135.751 13.9657 133.014C15.8279 130.277 18.4351 127.832 21.8137 125.705C29.2626 120.576 37.9885 116.218 48.0179 112.683C58.0474 109.148 66.9595 107.368 74.7542 107.368C90.3704 107.368 102.209 111.407 110.27 119.46C118.33 127.513 122.374 139.525 122.374 155.471C122.374 158.66 122.321 162.567 122.241 167.164C122.161 171.762 121.922 178.938 121.576 188.691C121.23 196.478 120.991 201.926 120.911 205.035C120.831 208.145 120.778 210.67 120.778 212.61C120.778 220.237 121.31 225.632 122.374 228.821C123.438 232.01 125.221 233.605 127.695 233.605C129.823 233.605 132.271 232.01 135.011 228.821C137.751 225.632 140.012 221.991 141.795 217.925C142.513 216.862 143.391 216.649 144.455 217.26C145.519 217.872 145.705 218.802 144.987 220.051C141.076 226.084 135.623 231.824 128.626 237.326C121.629 242.827 115.457 245.564 110.137 245.564C104.47 245.564 100.24 243.89 97.5001 240.515C94.7599 237.139 93.3766 231.931 93.3766 224.835C93.3766 221.46 93.4564 218.005 93.6426 214.47C93.8288 210.935 93.9884 208.092 94.1747 205.966ZM33.5191 206.231C33.5191 213.141 35.9666 218.935 40.835 223.639C45.7034 228.343 51.8754 230.761 59.3243 230.947C66.2412 230.947 73.2379 227.625 80.3409 220.981C87.444 214.337 92.1262 207.56 94.4407 200.65C94.9728 189.488 95.3718 180.452 95.6378 173.543C95.9039 166.633 96.0369 161.929 96.0369 159.457V156.002L75.8184 164.772C59.5106 171.682 48.3638 178.061 42.4312 183.907C36.4987 189.754 33.5191 197.195 33.5191 206.231Z" fill="var(--fill-0, #231F20)"/>
<path id="Vector_2" d="M294.526 242.641C288.487 242.827 284.151 242.907 281.491 242.907H275.106C274.042 242.907 273.51 242.508 273.51 241.711C273.51 240.913 274.042 240.515 275.106 240.515C280.24 240.515 283.619 239.797 285.215 238.389C286.811 236.98 287.875 234.402 288.407 230.681C288.753 228.555 289.019 225.977 289.206 222.974C289.392 219.971 289.472 216.065 289.472 211.281V145.106C289.472 142.103 288.487 138.94 286.545 135.671C284.603 132.403 281.491 128.815 277.234 124.908C276.888 124.563 276.702 124.244 276.702 123.978C276.702 123.712 276.888 123.5 277.234 123.314C280.426 122.064 284.896 119.805 290.669 116.537C296.442 113.268 300.379 110.637 302.507 108.697C302.853 108.351 303.119 108.218 303.305 108.298C303.492 108.378 303.758 108.617 304.103 108.962C307.11 111.806 309.77 116.483 312.084 123.048C314.399 129.612 315.543 136.07 315.543 142.448V143.777C316.793 137.585 318.735 132.137 321.396 127.433C324.056 122.729 327.514 118.716 331.771 115.341C334.431 112.683 337.411 110.69 340.683 109.361C343.955 108.032 347.653 107.368 351.723 107.368C355.794 107.368 358.986 107.846 361.301 108.83C363.615 109.813 364.759 111.275 364.759 113.215C364.759 116.749 363.11 120.736 359.837 125.174C356.565 129.612 352.974 131.818 349.063 131.818H337.624C332.489 131.818 328.632 132.137 326.051 132.748C323.471 133.359 321.475 134.476 320.065 136.07C318.469 138.01 317.352 141.04 316.74 145.106C316.128 149.172 315.809 155.391 315.809 163.709V240.515H333.367C334.431 240.515 334.963 240.913 334.963 241.711C334.963 242.508 334.431 242.907 333.367 242.907H330.973C329.722 242.907 327.168 242.827 323.258 242.641C317.059 242.641 312.696 242.588 310.222 242.508C307.748 242.428 306.045 242.375 305.168 242.375H302.241C300.831 242.375 298.251 242.455 294.526 242.641Z" fill="var(--fill-0, #231F20)"/>
<path id="Vector_3" d="M628.556 195.867C620.229 211.998 609.535 224.782 596.499 234.269C583.464 243.757 569.763 248.488 555.397 248.488C536.243 248.488 520.68 242.561 508.708 230.682C496.737 218.802 490.751 203.388 490.751 184.439C490.751 165.49 498.519 147.711 514.029 132.748C529.539 117.786 547.762 110.291 568.699 110.291C581.814 110.291 592.775 112.55 601.554 117.068C610.333 121.586 614.723 127.034 614.723 133.413C614.723 137.319 613.206 140.668 610.2 143.512C607.194 146.355 603.363 147.764 598.761 147.764C595.754 147.764 592.988 146.887 590.513 145.106C588.039 143.326 584.927 139.525 581.202 133.678C576.6 126.237 572.423 121.32 568.699 118.929C564.974 116.537 560.638 115.341 555.663 115.341C543.426 115.341 533.529 120.257 526 130.091C518.472 139.924 514.694 152.999 514.694 169.29C514.694 186.645 520.201 200.863 531.188 211.945C542.175 223.028 556.461 228.555 574.019 228.555C585.725 228.555 595.887 225.818 604.48 220.317C613.073 214.816 620.495 206.417 626.694 195.069C626.88 194.538 627.093 194.192 627.359 194.006C627.625 193.82 627.944 193.82 628.29 194.006C628.636 194.192 628.822 194.458 628.822 194.804C628.822 195.149 628.716 195.521 628.556 195.867Z" fill="var(--fill-0, #231F20)"/>
<path id="Vector_4" d="M155.469 244.076C159.142 244.076 162.12 241.101 162.12 237.432C162.12 233.763 159.142 230.788 155.469 230.788C151.796 230.788 148.818 233.763 148.818 237.432C148.818 241.101 151.796 244.076 155.469 244.076Z" fill="var(--fill-0, #231F20)"/>
<path id="Vector_5" d="M352.334 246.733C356.007 246.733 358.985 243.759 358.985 240.089C358.985 236.42 356.007 233.445 352.334 233.445C348.661 233.445 345.683 236.42 345.683 240.089C345.683 243.759 348.661 246.733 352.334 246.733Z" fill="var(--fill-0, #231F20)"/>
<path id="Vector_6" d="M623.689 246.733C627.362 246.733 630.34 243.759 630.34 240.089C630.34 236.42 627.362 233.445 623.689 233.445C620.016 233.445 617.038 236.42 617.038 240.089C617.038 243.759 620.016 246.733 623.689 246.733Z" fill="var(--fill-0, #231F20)"/>
<g id="Group">
<path id="Vector_7" d="M22.5852 298.504C22.5852 296.989 22.1861 295.873 21.388 295.155C20.5899 294.438 19.446 294.039 17.9296 294.039C16.8921 294.039 15.9077 294.225 15.0298 294.597C14.1519 294.969 13.3804 295.474 12.7686 296.086L11.3586 294.411C12.0769 293.694 13.0346 293.109 14.2051 292.631C15.3757 292.152 16.7324 291.913 18.1956 291.913C19.1267 291.913 20.0313 292.046 20.8294 292.312C21.6541 292.577 22.3724 292.976 22.9842 293.481C23.5961 294.013 24.1016 294.65 24.4474 295.448C24.7932 296.245 24.9795 297.175 24.9795 298.238V305.866C24.9795 306.53 24.9795 307.221 25.0593 307.939C25.1125 308.656 25.1923 309.267 25.2721 309.772H23.0108C22.931 309.347 22.8778 308.895 22.8246 308.39C22.7714 307.885 22.7448 307.407 22.7448 306.929H22.665C21.8669 308.098 20.9624 308.922 19.9514 309.427C18.9405 309.932 17.7434 310.198 16.3334 310.198C15.6683 310.198 14.9766 310.091 14.2583 309.932C13.5401 309.746 12.9016 309.427 12.3163 309.028C11.731 308.603 11.2522 308.045 10.8531 307.38C10.4807 306.716 10.2678 305.892 10.2678 304.909C10.2678 303.553 10.6137 302.49 11.2788 301.72C11.9439 300.949 12.875 300.338 14.0189 299.966C15.1629 299.567 16.4664 299.328 17.9562 299.222C19.446 299.115 20.9624 299.062 22.5586 299.062V298.504H22.5852ZM21.8403 301.055C20.8028 301.055 19.7386 301.108 18.7011 301.188C17.637 301.268 16.6792 301.454 15.8279 301.72C14.9766 301.985 14.2583 302.358 13.7263 302.862C13.1676 303.367 12.9016 304.005 12.9016 304.829C12.9016 305.44 13.008 305.972 13.2474 306.397C13.4868 306.822 13.8061 307.168 14.2051 307.407C14.6042 307.673 15.0298 307.859 15.5353 307.965C16.0142 308.071 16.5196 308.125 16.9985 308.125C17.903 308.125 18.6745 307.965 19.3928 307.673C20.1111 307.38 20.6697 306.929 21.1486 306.397C21.6275 305.866 21.9733 305.254 22.2393 304.563C22.5054 303.872 22.6118 303.128 22.6118 302.358V301.055H21.8669H21.8403Z" fill="var(--fill-0, #231F20)"/>
<path id="Vector_8" d="M47.7261 294.358C47.7261 293.614 47.6728 292.95 47.6196 292.338H50.0405C50.0937 292.817 50.1203 293.322 50.147 293.906C50.1736 294.491 50.1736 294.943 50.1736 295.315H50.2534C50.7588 294.305 51.5037 293.481 52.488 292.843C53.4724 292.206 54.5897 291.887 55.8401 291.887C56.1593 291.887 56.4519 291.887 56.718 291.913C56.984 291.94 57.25 291.993 57.5161 292.073L57.1702 294.491C57.0106 294.438 56.7712 294.385 56.4253 294.332C56.0795 294.279 55.7336 294.252 55.3878 294.252C54.7227 294.252 54.0842 294.385 53.4458 294.624C52.8073 294.863 52.2752 295.262 51.823 295.793C51.3707 296.325 50.9983 297.016 50.7056 297.84C50.413 298.664 50.28 299.673 50.28 300.816V309.719H47.7527V296.139C47.7527 295.66 47.7527 295.049 47.7261 294.305V294.358Z" fill="var(--fill-0, #231F20)"/>
<path id="Vector_9" d="M89.3321 296.351C88.9065 295.687 88.2946 295.129 87.4965 294.704C86.6984 294.278 85.8205 294.039 84.8628 294.039C83.8518 294.039 82.9207 294.225 82.096 294.571C81.2713 294.943 80.5796 295.421 79.9944 296.059C79.4091 296.697 78.9568 297.441 78.6642 298.291C78.345 299.142 78.2119 300.072 78.2119 301.055C78.2119 302.039 78.3716 302.969 78.6642 303.819C78.9834 304.67 79.4091 305.414 79.9944 306.025C80.553 306.663 81.2713 307.141 82.0694 307.513C82.8941 307.885 83.7986 308.045 84.8362 308.045C85.9535 308.045 86.8846 307.832 87.6561 307.407C88.4276 306.982 89.0661 306.45 89.5449 305.759L91.4338 307.168C90.6889 308.098 89.7844 308.816 88.6936 309.374C87.6029 309.932 86.3259 310.198 84.8096 310.198C83.3996 310.198 82.1226 309.958 80.9787 309.507C79.8347 309.055 78.8504 308.417 78.0523 307.593C77.2542 306.769 76.6157 305.812 76.1635 304.696C75.7112 303.58 75.4984 302.358 75.4984 301.055C75.4984 299.753 75.7112 298.531 76.1635 297.414C76.6157 296.298 77.2276 295.341 78.0523 294.518C78.8504 293.694 79.8347 293.056 80.9787 292.604C82.1226 292.152 83.3996 291.913 84.8096 291.913C85.9801 291.913 87.1506 292.179 88.3744 292.684C89.5716 293.189 90.5559 293.933 91.3008 294.943L89.3321 296.351Z" fill="var(--fill-0, #231F20)"/>
<path id="Vector_10" d="M114.339 295.235C114.818 294.226 115.59 293.402 116.68 292.817C117.771 292.232 118.942 291.913 120.192 291.913C122.4 291.913 124.049 292.578 125.167 293.88C126.284 295.182 126.816 296.936 126.816 299.089V309.773H124.289V300.125C124.289 299.195 124.209 298.371 124.076 297.627C123.916 296.883 123.677 296.245 123.305 295.714C122.932 295.182 122.453 294.757 121.841 294.465C121.229 294.172 120.458 294.013 119.553 294.013C118.888 294.013 118.223 294.146 117.611 294.412C116.973 294.677 116.414 295.103 115.909 295.661C115.403 296.219 115.004 296.936 114.712 297.787C114.419 298.637 114.259 299.647 114.259 300.816V309.746H111.732V281.628H114.259V295.209H114.339V295.235Z" fill="var(--fill-0, #231F20)"/>
<path id="Vector_11" d="M152.755 285.667C152.755 286.199 152.569 286.624 152.197 286.943C151.824 287.262 151.425 287.448 150.973 287.448C150.521 287.448 150.122 287.288 149.749 286.943C149.377 286.597 149.191 286.172 149.191 285.667C149.191 285.162 149.377 284.711 149.749 284.392C150.122 284.073 150.521 283.887 150.973 283.887C151.425 283.887 151.824 284.046 152.197 284.392C152.569 284.737 152.755 285.162 152.755 285.667ZM152.223 309.772H149.696V292.364H152.223V309.772Z" fill="var(--fill-0, #231F20)"/>
<path id="Vector_12" d="M182.391 309.773H179.598L172.495 292.365H175.315L180.981 307.089H181.061L186.754 292.365H189.468L182.391 309.773Z" fill="var(--fill-0, #231F20)"/>
<path id="Vector_13" d="M225.568 300.551V301.109C225.568 301.321 225.568 301.507 225.541 301.747H211.096C211.096 302.624 211.282 303.421 211.628 304.192C211.947 304.962 212.399 305.627 212.958 306.211C213.517 306.77 214.208 307.248 214.98 307.567C215.751 307.912 216.576 308.072 217.481 308.072C218.811 308.072 219.928 307.779 220.886 307.168C221.843 306.557 222.562 305.866 223.067 305.069L224.956 306.557C223.919 307.859 222.775 308.816 221.524 309.374C220.274 309.932 218.917 310.224 217.481 310.224C216.177 310.224 214.98 309.985 213.889 309.533C212.772 309.082 211.841 308.444 211.043 307.62C210.244 306.796 209.633 305.839 209.154 304.723C208.701 303.607 208.462 302.384 208.462 301.082C208.462 299.78 208.675 298.558 209.127 297.441C209.579 296.325 210.191 295.368 210.989 294.545C211.787 293.721 212.719 293.083 213.783 292.631C214.847 292.179 215.991 291.94 217.241 291.94C218.598 291.94 219.822 292.179 220.859 292.631C221.897 293.083 222.775 293.721 223.466 294.491C224.158 295.262 224.69 296.192 225.062 297.229C225.408 298.265 225.595 299.381 225.595 300.577L225.568 300.551ZM222.987 299.727C222.908 298.079 222.376 296.724 221.418 295.661C220.434 294.571 219.05 294.04 217.214 294.04C216.363 294.04 215.592 294.199 214.873 294.491C214.155 294.784 213.517 295.235 212.985 295.767C212.426 296.299 212 296.91 211.681 297.601C211.362 298.292 211.176 298.983 211.122 299.753H223.014L222.987 299.727Z" fill="var(--fill-0, #231F20)"/>
<path id="Vector_14" d="M272.816 294.358C272.816 293.614 272.763 292.95 272.71 292.338H275.131C275.184 292.817 275.211 293.322 275.237 293.906C275.237 294.465 275.264 294.943 275.264 295.315H275.344C275.849 294.305 276.594 293.481 277.578 292.843C278.563 292.206 279.68 291.887 280.93 291.887C281.249 291.887 281.542 291.887 281.808 291.913C282.074 291.94 282.34 291.993 282.606 292.073L282.26 294.491C282.101 294.438 281.861 294.385 281.515 294.332C281.17 294.279 280.824 294.252 280.478 294.252C279.813 294.252 279.148 294.385 278.536 294.624C277.924 294.863 277.365 295.262 276.913 295.793C276.461 296.325 276.088 297.016 275.796 297.84C275.503 298.664 275.37 299.673 275.37 300.816V309.719H272.843V296.139C272.843 295.66 272.843 295.049 272.816 294.305V294.358Z" fill="var(--fill-0, #231F20)"/>
<path id="Vector_15" d="M317.747 300.551V301.109C317.747 301.321 317.747 301.507 317.721 301.747H303.275C303.275 302.624 303.461 303.421 303.807 304.192C304.126 304.962 304.579 305.627 305.137 306.211C305.696 306.77 306.388 307.248 307.159 307.567C307.931 307.912 308.755 308.072 309.66 308.072C310.99 308.072 312.107 307.779 313.065 307.168C314.023 306.557 314.741 305.866 315.247 305.069L317.135 306.557C316.098 307.859 314.954 308.816 313.704 309.374C312.453 309.932 311.096 310.224 309.66 310.224C308.356 310.224 307.159 309.985 306.068 309.533C304.951 309.082 304.02 308.444 303.222 307.62C302.424 306.796 301.812 305.839 301.333 304.723C300.881 303.607 300.641 302.384 300.641 301.082C300.641 299.78 300.854 298.558 301.306 297.441C301.759 296.325 302.371 295.368 303.169 294.545C303.967 293.721 304.898 293.083 305.962 292.631C307.026 292.179 308.17 291.94 309.42 291.94C310.777 291.94 312.001 292.179 313.039 292.631C314.076 293.083 314.954 293.721 315.646 294.491C316.337 295.262 316.869 296.192 317.242 297.229C317.588 298.265 317.774 299.381 317.774 300.577L317.747 300.551ZM315.167 299.727C315.087 298.079 314.555 296.724 313.597 295.661C312.613 294.571 311.23 294.04 309.394 294.04C308.543 294.04 307.771 294.199 307.053 294.491C306.334 294.784 305.696 295.235 305.164 295.767C304.605 296.299 304.18 296.91 303.86 297.601C303.541 298.292 303.355 298.983 303.302 299.753H315.193L315.167 299.727Z" fill="var(--fill-0, #231F20)"/>
<path id="Vector_16" d="M350.231 298.504C350.231 296.989 349.832 295.873 349.034 295.155C348.236 294.411 347.092 294.039 345.576 294.039C344.538 294.039 343.554 294.225 342.676 294.597C341.798 294.969 341.027 295.474 340.415 296.086L339.005 294.411C339.723 293.694 340.681 293.109 341.851 292.631C343.022 292.152 344.352 291.913 345.842 291.913C346.773 291.913 347.677 292.046 348.475 292.312C349.3 292.577 350.018 292.976 350.63 293.481C351.242 294.013 351.748 294.65 352.094 295.448C352.439 296.245 352.626 297.175 352.626 298.238V305.866C352.626 306.53 352.626 307.221 352.705 307.939C352.759 308.656 352.838 309.267 352.918 309.772H350.657C350.577 309.347 350.524 308.895 350.471 308.39C350.418 307.885 350.391 307.407 350.391 306.929H350.311C349.513 308.098 348.608 308.922 347.624 309.427C346.613 309.932 345.416 310.198 343.98 310.198C343.314 310.198 342.623 310.091 341.904 309.932C341.186 309.746 340.548 309.427 339.962 309.028C339.377 308.603 338.898 308.045 338.499 307.38C338.1 306.716 337.914 305.892 337.914 304.909C337.914 303.553 338.26 302.49 338.951 301.72C339.643 300.949 340.548 300.338 341.692 299.966C342.836 299.567 344.139 299.328 345.629 299.222C347.092 299.115 348.635 299.062 350.231 299.062V298.504ZM349.486 301.055C348.449 301.055 347.385 301.108 346.347 301.188C345.31 301.268 344.325 301.454 343.474 301.72C342.623 301.985 341.931 302.358 341.372 302.862C340.814 303.367 340.548 304.005 340.548 304.829C340.548 305.44 340.654 305.972 340.894 306.397C341.133 306.822 341.452 307.168 341.851 307.407C342.25 307.673 342.676 307.859 343.181 307.965C343.66 308.071 344.166 308.125 344.645 308.125C345.549 308.125 346.321 307.965 347.039 307.673C347.731 307.354 348.316 306.929 348.795 306.397C349.274 305.866 349.619 305.254 349.885 304.563C350.125 303.872 350.258 303.128 350.258 302.358V301.055H349.513H349.486Z" fill="var(--fill-0, #231F20)"/>
<path id="Vector_17" d="M389.736 306.822C388.991 307.939 388.034 308.789 386.836 309.347C385.639 309.905 384.416 310.198 383.139 310.198C381.782 310.198 380.532 309.958 379.441 309.48C378.323 309.002 377.392 308.364 376.621 307.54C375.849 306.716 375.237 305.759 374.785 304.643C374.36 303.527 374.12 302.331 374.12 301.029C374.12 299.727 374.333 298.531 374.785 297.415C375.211 296.298 375.823 295.342 376.621 294.518C377.419 293.694 378.35 293.056 379.441 292.578C380.558 292.099 381.782 291.86 383.139 291.86C384.416 291.86 385.639 292.152 386.836 292.737C388.034 293.322 388.991 294.172 389.736 295.315H389.816V281.575H392.343V309.693H389.816V306.743H389.736V306.822ZM376.807 301.055C376.807 302.012 376.967 302.942 377.259 303.793C377.552 304.643 377.978 305.387 378.536 306.025C379.095 306.663 379.787 307.141 380.611 307.513C381.436 307.886 382.367 308.045 383.405 308.045C384.362 308.045 385.267 307.859 386.092 307.513C386.916 307.141 387.608 306.663 388.22 306.052C388.805 305.441 389.284 304.696 389.603 303.846C389.949 302.996 390.109 302.065 390.109 301.082C390.109 300.099 389.949 299.169 389.603 298.318C389.257 297.468 388.805 296.724 388.22 296.086C387.635 295.448 386.916 294.969 386.092 294.597C385.267 294.252 384.389 294.066 383.405 294.066C382.367 294.066 381.436 294.252 380.611 294.624C379.787 294.996 379.095 295.501 378.536 296.139C377.978 296.777 377.552 297.521 377.259 298.371C376.967 299.222 376.807 300.152 376.807 301.109V301.055Z" fill="var(--fill-0, #231F20)"/>
<path id="Vector_18" d="M421.395 307.062H421.475L426.875 292.365H429.642L420.97 314.291C420.437 315.62 419.772 316.709 418.974 317.506C418.176 318.304 417.006 318.729 415.489 318.729C414.718 318.729 413.973 318.649 413.228 318.516L413.494 316.204C414.079 316.39 414.718 316.497 415.356 316.497C416.234 316.497 416.899 316.231 417.405 315.699C417.91 315.168 418.336 314.397 418.708 313.414L420.118 309.773L412.669 292.392H415.489L421.422 307.089L421.395 307.062Z" fill="var(--fill-0, #231F20)"/>
<path id="Vector_19" d="M487.983 296.351C487.557 295.687 486.946 295.129 486.147 294.704C485.349 294.278 484.471 294.039 483.514 294.039C482.503 294.039 481.572 294.225 480.747 294.571C479.922 294.943 479.231 295.421 478.645 296.059C478.06 296.697 477.608 297.441 477.315 298.291C476.996 299.142 476.863 300.072 476.863 301.055C476.863 302.039 477.022 302.969 477.315 303.819C477.634 304.67 478.06 305.414 478.645 306.025C479.204 306.663 479.922 307.141 480.72 307.513C481.545 307.885 482.45 308.045 483.487 308.045C484.604 308.045 485.536 307.832 486.307 307.407C487.079 306.982 487.717 306.45 488.196 305.759L490.085 307.168C489.34 308.098 488.435 308.816 487.345 309.374C486.254 309.932 484.977 310.198 483.46 310.198C482.051 310.198 480.774 309.958 479.63 309.507C478.486 309.055 477.501 308.417 476.703 307.593C475.905 306.769 475.267 305.812 474.814 304.696C474.362 303.58 474.149 302.358 474.149 301.055C474.149 299.753 474.362 298.531 474.814 297.414C475.267 296.298 475.879 295.341 476.703 294.518C477.501 293.694 478.486 293.056 479.63 292.604C480.774 292.152 482.051 291.913 483.46 291.913C484.631 291.913 485.802 292.179 487.025 292.684C488.223 293.189 489.207 293.933 489.952 294.943L487.983 296.351Z" fill="var(--fill-0, #231F20)"/>
<path id="Vector_20" d="M512.937 309.772H510.409V281.654H512.937V309.772Z" fill="var(--fill-0, #231F20)"/>
<path id="Vector_21" d="M553.322 301.055C553.322 302.358 553.082 303.58 552.63 304.696C552.178 305.812 551.539 306.769 550.714 307.593C549.89 308.417 548.905 309.055 547.761 309.507C546.618 309.958 545.367 310.198 544.01 310.198C542.654 310.198 541.43 309.958 540.286 309.507C539.142 309.055 538.158 308.417 537.333 307.593C536.508 306.769 535.87 305.812 535.418 304.696C534.965 303.58 534.726 302.358 534.726 301.055C534.726 299.753 534.965 298.531 535.418 297.414C535.87 296.298 536.508 295.341 537.333 294.518C538.158 293.694 539.142 293.056 540.286 292.604C541.43 292.152 542.68 291.913 544.01 291.913C545.341 291.913 546.644 292.152 547.761 292.604C548.905 293.056 549.89 293.694 550.714 294.518C551.539 295.341 552.178 296.298 552.63 297.414C553.082 298.531 553.322 299.753 553.322 301.055ZM550.635 301.055C550.635 300.099 550.475 299.168 550.182 298.318C549.863 297.468 549.438 296.723 548.852 296.086C548.267 295.448 547.575 294.943 546.777 294.571C545.952 294.199 545.048 294.013 544.01 294.013C542.973 294.013 542.068 294.199 541.27 294.571C540.472 294.943 539.78 295.448 539.195 296.086C538.61 296.723 538.184 297.468 537.865 298.318C537.546 299.168 537.413 300.099 537.413 301.055C537.413 302.012 537.572 302.942 537.865 303.793C538.184 304.643 538.61 305.387 539.195 306.025C539.754 306.663 540.446 307.141 541.27 307.513C542.068 307.885 543 308.045 544.01 308.045C545.021 308.045 545.952 307.859 546.777 307.513C547.602 307.141 548.294 306.663 548.852 306.025C549.411 305.387 549.863 304.643 550.182 303.793C550.502 302.942 550.635 302.012 550.635 301.055Z" fill="var(--fill-0, #231F20)"/>
<path id="Vector_22" d="M587.692 309.773C587.639 309.294 587.612 308.789 587.586 308.205C587.586 307.647 587.559 307.168 587.559 306.796H587.479C586.974 307.806 586.176 308.63 585.058 309.268C583.941 309.906 582.771 310.225 581.52 310.225C579.312 310.225 577.663 309.56 576.545 308.258C575.428 306.956 574.896 305.202 574.896 303.049V292.365H577.423V302.013C577.423 302.943 577.503 303.767 577.636 304.511C577.796 305.255 578.035 305.893 578.408 306.424C578.754 306.956 579.259 307.381 579.871 307.673C580.483 307.966 581.254 308.125 582.159 308.125C582.824 308.125 583.489 307.992 584.127 307.726C584.766 307.461 585.325 307.035 585.83 306.477C586.335 305.919 586.735 305.202 587.027 304.351C587.32 303.501 587.479 302.491 587.479 301.322V292.392H590.007V305.972C590.007 306.451 590.007 307.062 590.033 307.806C590.033 308.55 590.087 309.215 590.14 309.826H587.719L587.692 309.773Z" fill="var(--fill-0, #231F20)"/>
<path id="Vector_23" d="M627.277 306.822C626.532 307.939 625.575 308.789 624.378 309.347C623.18 309.905 621.957 310.198 620.68 310.198C619.323 310.198 618.073 309.958 616.982 309.48C615.865 309.002 614.933 308.364 614.162 307.54C613.39 306.716 612.779 305.759 612.326 304.643C611.901 303.527 611.661 302.331 611.661 301.029C611.661 299.727 611.874 298.531 612.326 297.415C612.752 296.298 613.364 295.342 614.162 294.518C614.96 293.694 615.891 293.056 616.982 292.578C618.099 292.099 619.323 291.86 620.68 291.86C621.957 291.86 623.18 292.152 624.378 292.737C625.575 293.322 626.532 294.172 627.277 295.315H627.357V281.575H629.885V309.693H627.357V306.743H627.277V306.822ZM614.348 301.055C614.348 302.012 614.508 302.942 614.8 303.793C615.093 304.643 615.519 305.387 616.077 306.025C616.636 306.663 617.328 307.141 618.152 307.513C618.977 307.886 619.908 308.045 620.946 308.045C621.904 308.045 622.808 307.859 623.633 307.513C624.457 307.141 625.149 306.663 625.761 306.052C626.346 305.441 626.825 304.696 627.144 303.846C627.49 302.996 627.65 302.065 627.65 301.082C627.65 300.099 627.49 299.169 627.144 298.318C626.799 297.468 626.346 296.724 625.761 296.086C625.176 295.448 624.457 294.969 623.633 294.597C622.808 294.252 621.93 294.066 620.946 294.066C619.908 294.066 618.977 294.252 618.152 294.624C617.328 294.996 616.636 295.501 616.077 296.139C615.519 296.777 615.093 297.521 614.8 298.371C614.508 299.222 614.348 300.152 614.348 301.109V301.055Z" fill="var(--fill-0, #231F20)"/>
</g>
</g>
</svg>
