<svg width="1505" height="1505" viewBox="0 0 1505 1505" fill="none" xmlns="http://www.w3.org/2000/svg">
<mask id="mask0_391_25" style="mask-type:alpha" maskUnits="userSpaceOnUse" x="0" y="0" width="1505" height="1505">
<rect width="1505" height="1505" rx="334.444" fill="#222222"/>
</mask>
<g mask="url(#mask0_391_25)">
<rect width="1505" height="1505" rx="334.444" fill="#222222"/>
<mask id="mask1_391_25" style="mask-type:alpha" maskUnits="userSpaceOnUse" x="290" y="0" width="1506" height="1505">
<rect x="290.512" width="1505" height="1505" rx="334.444" fill="#222222"/>
</mask>
<g mask="url(#mask1_391_25)">
<path d="M831.939 1550.19L707.794 1509.53L1356.35 -42.2956L1478.35 0.513227L831.939 1550.19ZM1131.85 1550.19L1007.71 1509.53L1656.26 -42.2956L1778.27 0.513227L1131.85 1550.19Z" fill="#F3F0ED"/>
</g>
<path d="M329.147 531.568C329.147 528.26 357.81 441.168 357.81 408.095C324.737 427.939 267.411 491.88 264.103 494.085C237.645 509.519 212.289 501.802 205.674 492.983C201.265 483.061 206.777 456.602 234.338 441.168C238.747 438.963 326.942 421.324 355.605 403.686C320.327 384.944 238.747 368.408 234.338 366.203C206.777 350.769 201.265 324.31 205.674 315.491C212.289 305.569 237.645 297.852 264.103 313.286C268.513 315.491 329.147 383.842 357.81 399.276C355.605 359.588 329.147 280.213 329.147 275.803C329.147 244.935 348.991 226.194 360.015 226.194C371.039 226.194 390.883 244.935 390.883 275.803C390.883 281.316 362.22 366.203 362.22 399.276C395.293 379.432 452.619 315.491 455.927 313.286C482.385 297.852 507.741 305.569 514.356 315.491C518.765 324.31 513.253 350.769 485.692 366.203C482.385 368.408 393.088 386.047 365.527 403.686C399.703 422.427 482.385 438.963 485.692 441.168C513.253 456.602 518.765 483.061 514.356 492.983C507.741 501.802 482.385 509.519 455.927 494.085C452.619 492.983 390.883 423.529 362.22 408.095C364.425 447.783 390.883 528.26 390.883 531.568C390.883 562.436 371.039 581.177 360.015 581.177C348.991 581.177 329.147 562.436 329.147 531.568Z" fill="#F3F0ED"/>
</g>
</svg>
